# xmcd
# 
# Track frame offsets:
#     150
#     33837
#     60967
#     107205
#     136057
#     162335
#     188032
#     225272
#     253957
#     284305
# 
# Disc length: 4137
# 
# Revision: 1
# Processed by: cddbd v1.5.2PL0 Copyright (c) Steve Scherf et al.
# Submitted via: BonkEnc v1.0.8
# 
DISCID=7d10270a
DTITLE=Milcho Leviev, Dave Holland - The Oracle - Live At Suntory Hall
DYEAR=1987
DGENRE=Contemporary Jazz
TTITLE0=The Oracle
TTITLE1=Eveybody's Song but my Own
TTITLE2=Thracian Flamenco
TTITLE3=New One
TTITLE4=Andante Tranquillo
TTITLE5=You, I Love
TTITLE6=Samba Deborah
TTITLE7=First Snow
TTITLE8=Shoobee Doobee
TTITLE9=Warm Valley
EXTD=
EXTT0=
EXTT1=
EXTT2=
EXTT3=
EXTT4=
EXTT5=
EXTT6=
EXTT7=
EXTT8=
EXTT9=
PLAYORDER=
